# xmcd
#
# Track frame offsets:
#	150
#	12863
#	28556
#	38532
#	51738
#	62204
#	72971
#	84001
#	93926
#	105965
#
# Disc length: 1556 seconds
#
# Revision: 1
# Processed by: cddbd v1.5.1PL0 Copyright (c) Steve Scherf et al.
# Submitted via: audiograbber 1.83.01
#
DISCID=7106120a
DTITLE=Bobby Bare - Folsom Prison Blues
DYEAR=1900
DGENRE=
TTITLE0=Folsom Prison Blues
TTITLE1=Autumn of My Life
TTITLE2=Abilene
TTITLE3=Blowin' in the Wind
TTITLE4=Lemon Tree
TTITLE5=Try to Remember
TTITLE6=Silence Is Golden
TTITLE7=Gotta Travel On
TTITLE8=When Am I Ever Gonna Settle Down
TTITLE9=No Sad Songs for Me
EXTD=
EXTT0=
EXTT1=
EXTT2=
EXTT3=
EXTT4=
EXTT5=
EXTT6=
EXTT7=
EXTT8=
EXTT9=
PLAYORDER=
